<svg width="133" height="134" viewBox="0 0 133 134" fill="none" xmlns="http://www.w3.org/2000/svg">
<rect x="16.5" y="26.4961" width="69.2758" height="9.49748" rx="3" fill="#3F3F3F"/>
<path d="M38.2891 19.9985C38.2891 18.3417 39.6322 16.9985 41.2891 16.9985H60.9881C62.645 16.9985 63.9881 18.3417 63.9881 19.9985V26.496H38.2891V19.9985Z" fill="#3F3F3F"/>
<rect x="16.5" y="107.504" width="69.2758" height="9.49748" rx="3" fill="#3F3F3F"/>
<rect x="21.5293" y="35.9934" width="59.2196" height="71.5105" fill="#797979"/>
<path fill-rule="evenodd" clip-rule="evenodd" d="M112.011 42.6851H80.6475V89.0828H106.141C106.44 86.0854 108.946 83.738 112.011 83.688V42.6851Z" fill="#3F3F3F"/>
<rect x="85.0137" y="54.7971" width="8.78579" height="5.804" rx="2" transform="rotate(-90 85.0137 54.7971)" fill="#797979"/>
<rect x="95.6094" y="54.7971" width="8.78579" height="5.804" rx="2" transform="rotate(-90 95.6094 54.7971)" fill="#797979"/>
<path d="M80.6445 89.083H106.109V94.2293C106.109 96.4384 104.318 98.2293 102.109 98.2293H80.6445V89.083Z" fill="#3F3F3F"/>
<rect x="85.0137" y="95.3306" width="8.78579" height="5.804" rx="2" transform="rotate(-90 85.0137 95.3306)" fill="#797979"/>
<rect x="95.6094" y="95.3306" width="8.78579" height="5.804" rx="2" transform="rotate(-90 95.6094 95.3306)" fill="#797979"/>
<path d="M111.565 42.6851H112.5C114.71 42.6851 116.5 44.4759 116.5 46.6851V79.6875C116.5 81.8966 114.71 83.6875 112.5 83.6875H111.565V42.6851Z" fill="#3F3F3F"/>
<rect x="106.205" y="54.7971" width="8.78579" height="5.804" rx="2" transform="rotate(-90 106.205 54.7971)" fill="#797979"/>
</svg>
